# xmcd CD database file
#
# Track frame offsets:
#	183
#	9743
#	22438
#	34565
#	44430
#	55075
#	63423
#	74953
#	85180
#	92828
#	103378
#	114315
#	126273
#	136950
#	147698
#	157560
#	169153
#	178985
#	189810
#
# Disc length: 2732 seconds
#
# Revision: 3
# Processed by: cddbd v1.4PL0 Copyright (c) Steve Scherf et al.
# Submitted via: CDex 1.51
#
DISCID=170aaa13
DTITLE=Various Artist - ALL TIME 75_ COUNTRY and WESTERN CD 3
DYEAR=1900
DGENRE=Country
TTITLE0=NED MILLER - FROM A JACK TO A KING
TTITLE1=PATSY CLINE - I FALL TO PIECES
TTITLE2=FREDDY FENDER - WASTED DAYS AND WASTED NIGHTS
TTITLE3=HANK LOCKLIN - PLEASE HELP ME I'M FALLING
TTITLE4=BILLIE JO SPEARS - I'M SO LONESOME I COULD CRY
TTITLE5=JOHNNY CASH - COUNTRY BOY
TTITLE6=WILLIE NELSON - DECEMBER DAYS
TTITLE7=DAVE DUDDLEY - SEVEN LONELY DAYS
TTITLE8=ROGER MILLER - KING OF THE ROAD
TTITLE9=FRANKIE LAINE - SIXTEEN TONS
TTITLE10=HANK LOCKLIN - SEND ME THE PILLOW
TTITLE11=DOLLY PARTON - MAKIN' BELIEVE
TTITLE12=ROGER MILLER - KING OF THE ROAD
TTITLE13=WILLIE NELSON - I FEEL SORRY FOR HIM
TTITLE14=JOHNNY CASH - HEY PORTER
TTITLE15=FRANKIE LAINE - MULE TRAIN
TTITLE16=PATSY CLINE - HEARTACHES
TTITLE17=FRANKIE LAINE - HUMMINGBIRD
TTITLE18=LYNN ANDERSON - DESPERADO
EXTD=
EXTT0=
EXTT1=
EXTT2=
EXTT3=
EXTT4=
EXTT5=
EXTT6=
EXTT7=
EXTT8=
EXTT9=
EXTT10=
EXTT11=
EXTT12=
EXTT13=
EXTT14=
EXTT15=
EXTT16=
EXTT17=
EXTT18=
PLAYORDER=
